<svg xmlns="http://www.w3.org/2000/svg" xmlns:xlink="http://www.w3.org/1999/xlink" width="500" zoomAndPan="magnify" viewBox="0 0 375 374.999991" height="500" preserveAspectRatio="xMidYMid meet" version="1.0"><defs><g/><clipPath id="5f9f711774"><path d="M 56.378906 22.800781 L 318.878906 22.800781 L 318.878906 283.800781 L 56.378906 283.800781 Z M 56.378906 22.800781 " clip-rule="nonzero"/></clipPath><clipPath id="acec57b95c"><path d="M 89.445312 55.394531 L 285.195312 55.394531 L 285.195312 251.144531 L 89.445312 251.144531 Z M 89.445312 55.394531 " clip-rule="nonzero"/></clipPath><clipPath id="2d6d99ea1c"><path d="M 79.746094 44.324219 L 294.996094 44.324219 L 294.996094 351.824219 L 79.746094 351.824219 Z M 79.746094 44.324219 " clip-rule="nonzero"/></clipPath><clipPath id="5489e05294"><path d="M 104.769531 70.71875 L 270.230469 70.71875 L 270.230469 236.175781 L 104.769531 236.175781 Z M 104.769531 70.71875 " clip-rule="nonzero"/></clipPath><clipPath id="6534ecdfcd"><path d="M 187.5 70.71875 C 141.808594 70.71875 104.769531 107.757812 104.769531 153.449219 C 104.769531 199.136719 141.808594 236.179688 187.5 236.179688 C 233.191406 236.179688 270.230469 199.136719 270.230469 153.449219 C 270.230469 107.757812 233.191406 70.71875 187.5 70.71875 Z M 187.5 70.71875 " clip-rule="nonzero"/></clipPath><clipPath id="3f2e99d8e9"><path d="M 104.769531 70.71875 L 270.519531 70.71875 L 270.519531 236.46875 L 104.769531 236.46875 Z M 104.769531 70.71875 " clip-rule="nonzero"/></clipPath><clipPath id="fc16b0ae87"><path d="M 187.644531 70.71875 C 141.875 70.71875 104.769531 107.820312 104.769531 153.59375 C 104.769531 199.363281 141.875 236.46875 187.644531 236.46875 C 233.414062 236.46875 270.519531 199.363281 270.519531 153.59375 C 270.519531 107.820312 233.414062 70.71875 187.644531 70.71875 Z M 187.644531 70.71875 " clip-rule="nonzero"/></clipPath></defs><g clip-path="url(#5f9f711774)"><path fill="#7c0902" d="M 318.859375 151.574219 C 318.859375 146.03125 318.511719 140.5625 317.839844 135.199219 L 301.730469 130.460938 C 299.832031 120.394531 296.628906 110.785156 292.304688 101.816406 L 302.625 88.4375 C 297.300781 78.800781 290.792969 69.90625 283.304688 61.949219 L 267.234375 67.65625 C 259.972656 60.828125 251.828125 54.921875 242.988281 50.125 L 243.464844 33.027344 C 233.667969 28.417969 223.203125 24.992188 212.261719 22.914062 L 202.539062 37.074219 C 197.652344 36.453125 192.671875 36.128906 187.617188 36.128906 C 182.5625 36.128906 177.582031 36.453125 172.695312 37.074219 L 162.972656 22.914062 C 152.03125 24.992188 141.566406 28.417969 131.773438 33.027344 L 132.246094 50.125 C 123.40625 54.921875 115.265625 60.828125 108.003906 67.65625 L 91.929688 61.949219 C 84.441406 69.90625 77.933594 78.800781 72.617188 88.4375 L 82.933594 101.8125 C 78.605469 110.78125 75.40625 120.390625 73.507812 130.460938 L 57.394531 135.199219 C 56.722656 140.5625 56.378906 146.03125 56.378906 151.574219 C 56.378906 152.15625 56.386719 152.734375 56.394531 153.316406 C 56.386719 153.894531 56.378906 154.472656 56.378906 155.054688 C 56.378906 160.597656 56.722656 166.066406 57.394531 171.433594 L 73.507812 176.167969 C 75.40625 186.234375 78.605469 195.84375 82.929688 204.8125 L 72.609375 218.191406 C 77.933594 227.828125 84.441406 236.722656 91.929688 244.679688 L 108.003906 238.972656 C 115.265625 245.800781 123.40625 251.707031 132.246094 256.503906 L 131.773438 273.605469 C 141.566406 278.210938 152.03125 281.636719 162.976562 283.714844 L 172.695312 269.554688 C 177.582031 270.175781 182.5625 270.5 187.617188 270.5 C 192.671875 270.5 197.652344 270.175781 202.539062 269.554688 L 212.265625 283.714844 C 223.203125 281.636719 233.667969 278.210938 243.464844 273.605469 L 242.988281 256.503906 C 251.828125 251.707031 259.972656 245.800781 267.234375 238.972656 L 283.304688 244.679688 C 290.792969 236.722656 297.300781 227.828125 302.617188 218.191406 L 292.300781 204.816406 C 296.628906 195.847656 299.832031 186.238281 301.726562 176.167969 L 317.839844 171.433594 C 318.511719 166.066406 318.855469 160.597656 318.855469 155.054688 C 318.855469 154.472656 318.847656 153.894531 318.839844 153.3125 C 318.847656 152.734375 318.859375 152.15625 318.859375 151.574219 Z M 187.617188 261.628906 C 128.925781 261.628906 81.246094 214.558594 80.410156 156.183594 C 80.429688 156.179688 80.449219 156.175781 80.472656 156.175781 C 80.4375 155.226562 80.429688 154.269531 80.417969 153.316406 C 80.429688 152.359375 80.4375 151.402344 80.472656 150.457031 C 80.449219 150.453125 80.429688 150.449219 80.410156 150.445312 C 81.246094 92.070312 128.925781 45 187.617188 45 C 246.3125 45 293.992188 92.070312 294.828125 150.445312 C 294.804688 150.449219 294.785156 150.453125 294.765625 150.457031 C 294.796875 151.402344 294.804688 152.359375 294.816406 153.3125 C 294.804688 154.269531 294.796875 155.226562 294.765625 156.171875 C 294.785156 156.175781 294.804688 156.179688 294.828125 156.183594 C 293.992188 214.558594 246.3125 261.628906 187.617188 261.628906 Z M 187.617188 261.628906 " fill-opacity="1" fill-rule="nonzero"/></g><g clip-path="url(#acec57b95c)"><path fill="#004aad" d="M 285.195312 153.269531 C 285.195312 154.871094 285.15625 156.472656 285.078125 158.070312 C 285 159.671875 284.882812 161.269531 284.726562 162.863281 C 284.566406 164.457031 284.371094 166.046875 284.136719 167.628906 C 283.902344 169.214844 283.628906 170.792969 283.316406 172.363281 C 283.003906 173.933594 282.652344 175.496094 282.261719 177.050781 C 281.875 178.605469 281.445312 180.148438 280.980469 181.679688 C 280.515625 183.214844 280.015625 184.734375 279.476562 186.242188 C 278.933594 187.75 278.359375 189.246094 277.746094 190.722656 C 277.132812 192.203125 276.484375 193.667969 275.800781 195.117188 C 275.113281 196.5625 274.394531 197.996094 273.640625 199.40625 C 272.882812 200.820312 272.09375 202.214844 271.273438 203.585938 C 270.449219 204.960938 269.589844 206.3125 268.703125 207.644531 C 267.8125 208.976562 266.890625 210.285156 265.933594 211.574219 C 264.980469 212.859375 263.996094 214.121094 262.980469 215.359375 C 261.964844 216.597656 260.917969 217.8125 259.84375 218.996094 C 258.765625 220.183594 257.660156 221.34375 256.53125 222.476562 C 255.398438 223.609375 254.238281 224.714844 253.050781 225.789062 C 251.863281 226.867188 250.652344 227.910156 249.414062 228.925781 C 248.175781 229.945312 246.910156 230.929688 245.625 231.882812 C 244.339844 232.835938 243.03125 233.757812 241.699219 234.648438 C 240.367188 235.539062 239.011719 236.394531 237.640625 237.21875 C 236.265625 238.042969 234.871094 238.832031 233.460938 239.585938 C 232.046875 240.34375 230.617188 241.0625 229.167969 241.746094 C 227.71875 242.433594 226.257812 243.082031 224.777344 243.695312 C 223.296875 244.308594 221.800781 244.882812 220.292969 245.421875 C 218.785156 245.960938 217.265625 246.464844 215.734375 246.929688 C 214.199219 247.394531 212.65625 247.820312 211.101562 248.210938 C 209.550781 248.601562 207.988281 248.949219 206.414062 249.261719 C 204.84375 249.574219 203.265625 249.851562 201.683594 250.085938 C 200.097656 250.320312 198.507812 250.515625 196.914062 250.671875 C 195.320312 250.828125 193.722656 250.949219 192.125 251.027344 C 190.523438 251.105469 188.921875 251.144531 187.320312 251.144531 C 185.71875 251.144531 184.117188 251.105469 182.519531 251.027344 C 180.917969 250.949219 179.320312 250.828125 177.726562 250.671875 C 176.132812 250.515625 174.542969 250.320312 172.960938 250.085938 C 171.375 249.851562 169.796875 249.574219 168.226562 249.261719 C 166.65625 248.949219 165.09375 248.601562 163.539062 248.210938 C 161.984375 247.820312 160.441406 247.394531 158.910156 246.929688 C 157.375 246.464844 155.855469 245.960938 154.347656 245.421875 C 152.839844 244.882812 151.347656 244.308594 149.867188 243.695312 C 148.386719 243.082031 146.921875 242.433594 145.472656 241.746094 C 144.027344 241.0625 142.597656 240.34375 141.183594 239.585938 C 139.769531 238.832031 138.378906 238.042969 137.003906 237.21875 C 135.628906 236.394531 134.277344 235.539062 132.945312 234.648438 C 131.613281 233.757812 130.304688 232.835938 129.015625 231.882812 C 127.730469 230.929688 126.46875 229.945312 125.230469 228.925781 C 123.992188 227.910156 122.78125 226.867188 121.59375 225.789062 C 120.40625 224.714844 119.246094 223.609375 118.113281 222.476562 C 116.980469 221.34375 115.875 220.183594 114.800781 218.996094 C 113.726562 217.8125 112.679688 216.597656 111.664062 215.359375 C 110.648438 214.121094 109.660156 212.859375 108.707031 211.574219 C 107.753906 210.285156 106.832031 208.976562 105.941406 207.644531 C 105.050781 206.3125 104.195312 204.960938 103.371094 203.585938 C 102.546875 202.214844 101.757812 200.820312 101.003906 199.40625 C 100.25 197.996094 99.527344 196.5625 98.84375 195.117188 C 98.160156 193.667969 97.507812 192.203125 96.898438 190.722656 C 96.285156 189.246094 95.707031 187.75 95.167969 186.242188 C 94.628906 184.734375 94.125 183.214844 93.660156 181.679688 C 93.195312 180.148438 92.769531 178.605469 92.378906 177.050781 C 91.992188 175.496094 91.640625 173.933594 91.328125 172.363281 C 91.015625 170.792969 90.742188 169.214844 90.503906 167.628906 C 90.269531 166.046875 90.074219 164.457031 89.917969 162.863281 C 89.761719 161.269531 89.644531 159.671875 89.5625 158.070312 C 89.484375 156.472656 89.445312 154.871094 89.445312 153.269531 C 89.445312 151.667969 89.484375 150.066406 89.5625 148.464844 C 89.644531 146.867188 89.761719 145.269531 89.917969 143.675781 C 90.074219 142.082031 90.269531 140.492188 90.503906 138.90625 C 90.742188 137.324219 91.015625 135.746094 91.328125 134.175781 C 91.640625 132.605469 91.992188 131.042969 92.378906 129.488281 C 92.769531 127.933594 93.195312 126.390625 93.660156 124.859375 C 94.125 123.324219 94.628906 121.804688 95.167969 120.296875 C 95.707031 118.789062 96.285156 117.292969 96.898438 115.8125 C 97.507812 114.335938 98.160156 112.871094 98.84375 111.421875 C 99.527344 109.972656 100.25 108.542969 101.003906 107.132812 C 101.757812 105.71875 102.546875 104.324219 103.371094 102.953125 C 104.195312 101.578125 105.050781 100.222656 105.941406 98.894531 C 106.832031 97.5625 107.753906 96.25 108.707031 94.964844 C 109.660156 93.679688 110.648438 92.417969 111.664062 91.179688 C 112.679688 89.941406 113.726562 88.726562 114.800781 87.539062 C 115.875 86.351562 116.980469 85.195312 118.113281 84.0625 C 119.246094 82.929688 120.40625 81.824219 121.59375 80.75 C 122.78125 79.671875 123.992188 78.625 125.230469 77.609375 C 126.46875 76.59375 127.730469 75.609375 129.015625 74.65625 C 130.304688 73.699219 131.613281 72.777344 132.945312 71.890625 C 134.277344 71 135.628906 70.140625 137.003906 69.320312 C 138.378906 68.496094 139.769531 67.707031 141.183594 66.949219 C 142.597656 66.195312 144.027344 65.476562 145.472656 64.792969 C 146.921875 64.105469 148.386719 63.457031 149.867188 62.84375 C 151.347656 62.230469 152.839844 61.65625 154.347656 61.117188 C 155.855469 60.574219 157.375 60.074219 158.910156 59.609375 C 160.441406 59.144531 161.984375 58.714844 163.539062 58.328125 C 165.09375 57.9375 166.65625 57.585938 168.226562 57.273438 C 169.796875 56.960938 171.375 56.6875 172.960938 56.453125 C 174.542969 56.21875 176.132812 56.023438 177.726562 55.867188 C 179.320312 55.707031 180.917969 55.589844 182.519531 55.511719 C 184.117188 55.433594 185.71875 55.394531 187.320312 55.394531 C 188.921875 55.394531 190.523438 55.433594 192.125 55.511719 C 193.722656 55.589844 195.320312 55.707031 196.914062 55.867188 C 198.507812 56.023438 200.097656 56.21875 201.683594 56.453125 C 203.265625 56.6875 204.84375 56.960938 206.414062 57.273438 C 207.988281 57.585938 209.550781 57.9375 211.101562 58.328125 C 212.65625 58.714844 214.199219 59.144531 215.734375 59.609375 C 217.265625 60.074219 218.785156 60.574219 220.292969 61.117188 C 221.800781 61.65625 223.296875 62.230469 224.777344 62.84375 C 226.257812 63.457031 227.71875 64.105469 229.167969 64.792969 C 230.617188 65.476562 232.046875 66.195312 233.460938 66.949219 C 234.871094 67.707031 236.265625 68.496094 237.640625 69.320312 C 239.011719 70.140625 240.367188 71 241.699219 71.890625 C 243.03125 72.777344 244.339844 73.699219 245.625 74.65625 C 246.910156 75.609375 248.175781 76.59375 249.414062 77.609375 C 250.652344 78.625 251.863281 79.671875 253.050781 80.75 C 254.238281 81.824219 255.398438 82.929688 256.53125 84.0625 C 257.660156 85.195312 258.765625 86.351562 259.84375 87.539062 C 260.917969 88.726562 261.964844 89.941406 262.980469 91.179688 C 263.996094 92.417969 264.980469 93.679688 265.933594 94.964844 C 266.890625 96.25 267.8125 97.5625 268.703125 98.894531 C 269.589844 100.222656 270.449219 101.578125 271.273438 102.953125 C 272.09375 104.324219 272.882812 105.71875 273.640625 107.132812 C 274.394531 108.542969 275.113281 109.972656 275.800781 111.421875 C 276.484375 112.871094 277.132812 114.335938 277.746094 115.8125 C 278.359375 117.292969 278.933594 118.789062 279.476562 120.296875 C 280.015625 121.804688 280.515625 123.324219 280.980469 124.859375 C 281.445312 126.390625 281.875 127.933594 282.261719 129.488281 C 282.652344 131.042969 283.003906 132.605469 283.316406 134.175781 C 283.628906 135.746094 283.902344 137.324219 284.136719 138.90625 C 284.371094 140.492188 284.566406 142.082031 284.726562 143.675781 C 284.882812 145.269531 285 146.867188 285.078125 148.464844 C 285.15625 150.066406 285.195312 151.667969 285.195312 153.269531 Z M 285.195312 153.269531 " fill-opacity="1" fill-rule="nonzero"/></g><g clip-path="url(#2d6d99ea1c)"><path fill="#f7b538" d="M 187.371094 44.324219 C 127.945312 44.324219 79.746094 92.527344 79.746094 151.949219 C 79.746094 232.667969 187.371094 351.824219 187.371094 351.824219 C 187.371094 351.824219 294.992188 232.667969 294.992188 151.949219 C 294.992188 92.527344 246.792969 44.324219 187.371094 44.324219 Z M 187.371094 190.386719 C 166.152344 190.386719 148.933594 173.167969 148.933594 151.949219 C 148.933594 130.734375 166.152344 113.511719 187.371094 113.511719 C 208.585938 113.511719 225.808594 130.734375 225.808594 151.949219 C 225.808594 173.167969 208.585938 190.386719 187.371094 190.386719 Z M 187.371094 190.386719 " fill-opacity="1" fill-rule="nonzero"/></g><g clip-path="url(#5489e05294)"><g clip-path="url(#6534ecdfcd)"><path fill="#ffffff" d="M 104.769531 70.71875 L 270.230469 70.71875 L 270.230469 236.179688 L 104.769531 236.179688 Z M 104.769531 70.71875 " fill-opacity="1" fill-rule="nonzero"/></g></g><g clip-path="url(#3f2e99d8e9)"><g clip-path="url(#fc16b0ae87)"><path stroke-linecap="butt" transform="matrix(0.751328, 0, 0, 0.751328, 104.770018, 70.71781)" fill="none" stroke-linejoin="miter" d="M 110.304059 0.00125144 C 49.385872 0.00125144 -0.000647347 49.382572 -0.000647347 110.305958 C -0.000647347 171.224144 49.385872 220.610664 110.304059 220.610664 C 171.222245 220.610664 220.608765 171.224144 220.608765 110.305958 C 220.608765 49.382572 171.222245 0.00125144 110.304059 0.00125144 Z M 110.304059 0.00125144 " stroke="#7c0902" stroke-width="20" stroke-opacity="1" stroke-miterlimit="4"/></g></g><g fill="#800000" fill-opacity="1"><g transform="translate(137.188471, 197.860715)"><g><path d="M 64.09375 -95.859375 C 70.039062 -95.859375 75.332031 -94.488281 79.96875 -91.75 C 84.613281 -89.007812 88.238281 -85.242188 90.84375 -80.453125 C 93.445312 -75.671875 94.75 -70.3125 94.75 -64.375 L 94.75 -62.5625 C 94.75 -56.613281 93.445312 -51.222656 90.84375 -46.390625 C 88.238281 -41.566406 84.613281 -37.785156 79.96875 -35.046875 C 75.332031 -32.304688 70.039062 -30.9375 64.09375 -30.9375 L 41.109375 -30.9375 L 41.109375 0 L 10.3125 0 L 10.3125 -95.859375 Z M 41.109375 -53.359375 L 53.78125 -53.359375 C 57.03125 -53.359375 59.46875 -54.191406 61.09375 -55.859375 C 62.71875 -57.535156 63.53125 -59.816406 63.53125 -62.703125 L 63.53125 -63.8125 C 63.53125 -66.78125 62.71875 -69.078125 61.09375 -70.703125 C 59.46875 -72.328125 57.03125 -73.140625 53.78125 -73.140625 L 41.109375 -73.140625 Z M 41.109375 -53.359375 "/></g></g></g></svg>